<svg width="194" height="18" viewBox="0 0 194 18" fill="none" xmlns="http://www.w3.org/2000/svg">
<g filter="url(#filter0_d_0_1)">
<path fill-rule="evenodd" clip-rule="evenodd" d="M3.5 8C3.22386 8 3 8.22386 3 8.5C3 8.77614 3.22386 9 3.5 9H7.35417C7.63031 9 7.85417 8.77614 7.85417 8.5C7.85417 8.22386 7.63031 8 7.35417 8H3.5ZM15.0625 8C14.7864 8 14.5625 8.22386 14.5625 8.5C14.5625 8.77614 14.7864 9 15.0625 9H22.7708C23.047 9 23.2708 8.77614 23.2708 8.5C23.2708 8.22386 23.047 8 22.7708 8H15.0625ZM30.4792 8C30.203 8 29.9792 8.22386 29.9792 8.5C29.9792 8.77614 30.203 9 30.4792 9H38.1875C38.4636 9 38.6875 8.77614 38.6875 8.5C38.6875 8.22386 38.4636 8 38.1875 8H30.4792ZM45.8958 8C45.6197 8 45.3958 8.22386 45.3958 8.5C45.3958 8.77614 45.6197 9 45.8958 9H53.6042C53.8803 9 54.1042 8.77614 54.1042 8.5C54.1042 8.22386 53.8803 8 53.6042 8H45.8958ZM61.3125 8C61.0364 8 60.8125 8.22386 60.8125 8.5C60.8125 8.77614 61.0364 9 61.3125 9H69.0208C69.297 9 69.5208 8.77614 69.5208 8.5C69.5208 8.22386 69.297 8 69.0208 8H61.3125ZM76.7292 8C76.453 8 76.2292 8.22386 76.2292 8.5C76.2292 8.77614 76.453 9 76.7292 9H84.4375C84.7136 9 84.9375 8.77614 84.9375 8.5C84.9375 8.22386 84.7136 8 84.4375 8H76.7292ZM107.563 8C107.286 8 107.063 8.22386 107.063 8.5C107.063 8.77614 107.286 9 107.563 9H115.271C115.547 9 115.771 8.77614 115.771 8.5C115.771 8.22386 115.547 8 115.271 8H107.563ZM122.979 8C122.703 8 122.479 8.22386 122.479 8.5C122.479 8.77614 122.703 9 122.979 9H130.688C130.964 9 131.188 8.77614 131.188 8.5C131.188 8.22386 130.964 8 130.688 8H122.979ZM138.396 8C138.12 8 137.896 8.22386 137.896 8.5C137.896 8.77614 138.12 9 138.396 9H146.104C146.38 9 146.604 8.77614 146.604 8.5C146.604 8.22386 146.38 8 146.104 8H138.396ZM153.812 8C153.536 8 153.312 8.22386 153.312 8.5C153.312 8.77614 153.536 9 153.812 9H161.521C161.797 9 162.021 8.77614 162.021 8.5C162.021 8.22386 161.797 8 161.521 8H153.812ZM169.229 8C168.953 8 168.729 8.22386 168.729 8.5C168.729 8.77614 168.953 9 169.229 9H176.937C177.214 9 177.437 8.77614 177.437 8.5C177.437 8.22386 177.214 8 176.937 8H169.229ZM184.646 8C184.37 8 184.146 8.22386 184.146 8.5C184.146 8.77614 184.37 9 184.646 9H188.5C188.776 9 189 8.77614 189 8.5C189 8.22386 188.776 8 188.5 8H184.646Z" fill="#B8B8B8"/>
</g>
<g filter="url(#filter1_d_0_1)">
<path d="M94.04 12.072C93.408 12.072 92.82 11.968 92.276 11.76C91.74 11.544 91.272 11.244 90.872 10.86C90.48 10.468 90.172 10.016 89.948 9.504C89.732 8.984 89.624 8.416 89.624 7.8C89.624 7.184 89.732 6.62 89.948 6.108C90.172 5.588 90.48 5.136 90.872 4.752C91.272 4.36 91.74 4.06 92.276 3.852C92.812 3.636 93.4 3.528 94.04 3.528C94.672 3.528 95.256 3.636 95.792 3.852C96.328 4.06 96.792 4.356 97.184 4.74C97.584 5.124 97.892 5.576 98.108 6.096C98.332 6.616 98.444 7.184 98.444 7.8C98.444 8.416 98.332 8.984 98.108 9.504C97.892 10.024 97.584 10.476 97.184 10.86C96.792 11.244 96.328 11.544 95.792 11.76C95.256 11.968 94.672 12.072 94.04 12.072ZM94.04 11.28C94.544 11.28 95.008 11.196 95.432 11.028C95.864 10.852 96.236 10.608 96.548 10.296C96.868 9.976 97.116 9.608 97.292 9.192C97.468 8.768 97.556 8.304 97.556 7.8C97.556 7.296 97.468 6.836 97.292 6.42C97.116 5.996 96.868 5.628 96.548 5.316C96.236 4.996 95.864 4.752 95.432 4.584C95.008 4.408 94.544 4.32 94.04 4.32C93.536 4.32 93.068 4.408 92.636 4.584C92.204 4.752 91.828 4.996 91.508 5.316C91.196 5.628 90.948 5.996 90.764 6.42C90.588 6.836 90.5 7.296 90.5 7.8C90.5 8.296 90.588 8.756 90.764 9.18C90.948 9.604 91.196 9.976 91.508 10.296C91.828 10.608 92.204 10.852 92.636 11.028C93.068 11.196 93.536 11.28 94.04 11.28ZM100.254 12V5.7H101.07V7.416L100.986 7.116C101.162 6.636 101.458 6.272 101.874 6.024C102.29 5.768 102.806 5.64 103.422 5.64V6.468C103.39 6.468 103.358 6.468 103.326 6.468C103.294 6.46 103.262 6.456 103.23 6.456C102.566 6.456 102.046 6.66 101.67 7.068C101.294 7.468 101.106 8.04 101.106 8.784V12H100.254Z" fill="#AFAFAF"/>
</g>
<defs>
<filter id="filter0_d_0_1" x="0" y="5" width="194" height="9" filterUnits="userSpaceOnUse" color-interpolation-filters="sRGB">
<feFlood flood-opacity="0" result="BackgroundImageFix"/>
<feColorMatrix in="SourceAlpha" type="matrix" values="0 0 0 0 0 0 0 0 0 0 0 0 0 0 0 0 0 0 127 0" result="hardAlpha"/>
<feOffset dx="1" dy="1"/>
<feGaussianBlur stdDeviation="2"/>
<feComposite in2="hardAlpha" operator="out"/>
<feColorMatrix type="matrix" values="0 0 0 0 0 0 0 0 0 0 0 0 0 0 0 0 0 0 0.2 0"/>
<feBlend mode="normal" in2="BackgroundImageFix" result="effect1_dropShadow_0_1"/>
<feBlend mode="normal" in="SourceGraphic" in2="effect1_dropShadow_0_1" result="shape"/>
</filter>
<filter id="filter1_d_0_1" x="86.624" y="0.528" width="21.7984" height="16.544" filterUnits="userSpaceOnUse" color-interpolation-filters="sRGB">
<feFlood flood-opacity="0" result="BackgroundImageFix"/>
<feColorMatrix in="SourceAlpha" type="matrix" values="0 0 0 0 0 0 0 0 0 0 0 0 0 0 0 0 0 0 127 0" result="hardAlpha"/>
<feOffset dx="1" dy="1"/>
<feGaussianBlur stdDeviation="2"/>
<feComposite in2="hardAlpha" operator="out"/>
<feColorMatrix type="matrix" values="0 0 0 0 0 0 0 0 0 0 0 0 0 0 0 0 0 0 0.1 0"/>
<feBlend mode="normal" in2="BackgroundImageFix" result="effect1_dropShadow_0_1"/>
<feBlend mode="normal" in="SourceGraphic" in2="effect1_dropShadow_0_1" result="shape"/>
</filter>
</defs>
</svg>
